<svg width="16" height="18" viewBox="0 0 16 18" fill="none" xmlns="http://www.w3.org/2000/svg">
<path fill-rule="evenodd" clip-rule="evenodd" d="M0 14.6C0 15.9256 1.0744 17 2.4 17H13.6C14.9256 17 16 15.9256 16 14.6V3.4C16 2.0744 14.9256 1 13.6 1H2.4C1.0744 1 0 2.0744 0 3.4V14.6ZM14.4 14.6C14.4 15.0416 14.0416 15.4 13.6 15.4H2.4C1.9584 15.4 1.6 15.0416 1.6 14.6V3.4C1.6 2.9584 1.9584 2.6 2.4 2.6H6.4V9.00879H8.316L9.6 7.29121L10.884 9.00879H12.8V2.6H13.6C14.0416 2.6 14.4 2.9584 14.4 3.4V14.6ZM11.2 2.6H8V6.8688L9.6 4.72798L11.2 6.8688V2.6Z" fill="#83719F"/>
</svg>
