<svg width="16" height="16" viewBox="0 0 16 16" fill="none" xmlns="http://www.w3.org/2000/svg">
<path fill-rule="evenodd" clip-rule="evenodd" d="M7.33333 13.3333C7.33333 12.9651 7.03486 12.6667 6.66667 12.6667H3.33333V3.33333H6.66667C7.03486 3.33333 7.33333 3.03486 7.33333 2.66667C7.33333 2.29848 7.03486 2 6.66667 2H3.33333C2.59695 2 2 2.59695 2 3.33333V12.6667C2 13.403 2.59695 14 3.33333 14H6.66667C7.03486 14 7.33333 13.7015 7.33333 13.3333Z" fill="#83719F"/>
<path d="M14.4757 8.46703C14.5375 8.40414 14.5843 8.33203 14.6161 8.25519C14.6484 8.17717 14.6664 8.09166 14.6667 8.002L14.6667 8L14.6667 7.998C14.6662 7.82805 14.6011 7.65826 14.4714 7.52859L11.8047 4.86193C11.5444 4.60158 11.1223 4.60158 10.8619 4.86193C10.6016 5.12228 10.6016 5.54439 10.8619 5.80474L12.3905 7.33333H6C5.63181 7.33333 5.33333 7.63181 5.33333 8C5.33333 8.36819 5.63181 8.66667 6 8.66667H12.3905L10.8619 10.1953C10.6016 10.4556 10.6016 10.8777 10.8619 11.1381C11.1223 11.3984 11.5444 11.3984 11.8047 11.1381L14.4709 8.47188L14.4757 8.46703Z" fill="#83719F"/>
</svg>
