<svg width="201" height="88" viewBox="0 0 201 88" fill="none" xmlns="http://www.w3.org/2000/svg">
<g clip-path="url(#clip0)">
<path d="M69.8257 56.5345C69.4142 56.5906 68.9959 56.5049 68.6393 56.2915C68.2827 56.0782 68.0088 55.7497 67.8625 55.3599L67.6788 54.6287L66.7489 49.2566C66.6829 48.8104 66.6111 48.416 66.5393 48.082L66.3413 47.2529C66.2236 46.8066 66.0801 46.1445 65.8964 45.2837L64.1743 35.884C64.1284 35.5864 64.1284 35.2834 64.1743 34.9858C64.2293 34.6138 64.4072 34.2712 64.6795 34.0127C64.9483 33.7468 65.2937 33.5725 65.6668 33.5147C66.0685 33.4432 66.4824 33.5199 66.8321 33.7306C67.1806 33.9339 67.4491 34.2509 67.5927 34.6288C67.6529 34.8453 67.6989 35.0655 67.7305 35.2881C68.0825 37.3014 68.3418 38.8464 68.5083 39.9231L68.5743 40.1218L68.8613 39.9116C68.9531 39.7792 69.2918 39.379 69.8831 38.714C70.637 37.7966 71.8673 36.4838 73.5741 34.7756C74.0993 34.2833 74.4868 33.912 74.7423 33.6241C75.1202 33.2013 75.6495 32.9457 76.2146 32.913C76.6572 32.9289 77.0816 33.0931 77.4201 33.3793C77.7631 33.6719 77.9843 34.0828 78.0401 34.5309C78.0912 34.868 78.0473 35.2127 77.9134 35.5261C77.7795 35.8394 77.561 36.109 77.2823 36.3043C77.008 36.5253 76.7473 36.7628 76.5017 37.0154C75.6961 37.7582 74.8427 38.6219 73.9415 39.6065C73.0316 40.5853 72.162 41.5785 71.3239 42.5113C71.1058 42.7531 70.7929 43.1677 70.3796 43.7262L70.9881 44.1523C71.2202 44.3246 71.4627 44.4823 71.7142 44.6244C72.7365 45.2533 73.7252 45.9356 74.6762 46.6685C75.633 47.4035 76.7236 48.297 77.9482 49.3487C78.4098 49.7264 78.8479 50.1321 79.2599 50.5636C79.5478 50.8887 79.7405 51.2872 79.8167 51.7152C79.8587 51.9422 79.855 52.1753 79.8057 52.4007C79.7564 52.6262 79.6625 52.8395 79.5297 53.028C79.393 53.2214 79.2174 53.3839 79.0142 53.5049C78.811 53.6259 78.5847 53.7027 78.35 53.7304C78.0679 53.7757 77.779 53.7523 77.5078 53.6621C77.2365 53.5719 76.9909 53.4176 76.7915 53.2122C76.1371 52.5558 75.4828 51.9858 74.8284 51.4475L73.9243 50.7248C72.8804 49.8414 71.787 49.0186 70.6494 48.2605L70.1931 47.9726V48.2173C70.6322 50.7652 70.9709 52.6969 71.2148 53.9896C71.2493 54.2083 71.2722 54.4271 71.2866 54.6459C71.3124 55.0797 71.1743 55.5073 70.8998 55.8434C70.6253 56.1796 70.2346 56.3996 69.8056 56.4597L69.8257 56.5345Z" fill="white" stroke="#7564A0" stroke-miterlimit="10"/>
<path d="M94.6641 52.9618C94.2799 53.0197 93.8874 52.9457 93.5504 52.7516C93.2259 52.5732 92.9733 52.2873 92.8358 51.9426C92.7749 51.7939 92.725 51.6409 92.6865 51.4849C92.6751 51.3708 92.653 51.258 92.6205 51.1481L92.3335 49.605C92.2195 49.7541 92.0968 49.8964 91.9661 50.031C91.8334 50.1685 91.7088 50.3137 91.593 50.4658C91.0505 51.1519 90.4377 51.7791 89.7647 52.3371C88.9751 53.0161 88.0116 53.4599 86.9835 53.6182C85.6544 53.8084 84.3024 53.4942 83.192 52.7372C82.0281 51.9753 81.1898 50.8048 80.8414 49.4553C80.7064 48.9723 80.6038 48.4808 80.5343 47.9841C80.3213 46.6227 80.396 45.2315 80.7535 43.9008C81.111 42.5702 81.7433 41.3298 82.6094 40.26C83.3116 39.3157 84.1943 38.5214 85.206 37.9232C86.2177 37.3251 87.3382 36.9353 88.5018 36.7765C88.8606 36.7333 89.1562 36.6988 89.3457 36.693C90.1492 36.6447 90.9555 36.7067 91.7422 36.8772C92.3101 36.998 92.8516 37.2204 93.3409 37.5336C93.5913 37.6819 93.8028 37.888 93.9576 38.135C94.1124 38.3819 94.206 38.6623 94.2307 38.9529C94.2291 39.1076 94.2494 39.2617 94.2909 39.4107C94.3366 39.5703 94.3711 39.7328 94.3943 39.8972L94.8736 43.5765C95.0305 44.6782 95.2792 46.2846 95.6198 48.3958L95.9872 50.7882C96.024 51.0226 96.0451 51.2592 96.0503 51.4964C96.0211 51.8786 95.8679 52.2406 95.6141 52.5271C95.3575 52.7784 95.0215 52.9322 94.6641 52.9618ZM86.5099 50.1491C86.842 50.1097 87.1604 49.9934 87.4399 49.8094C87.7483 49.6029 88.0366 49.3677 88.3009 49.1069C89.3555 48.0173 90.0818 46.6511 90.3961 45.1657C90.6342 44.0561 90.7782 42.9284 90.8267 41.7944L90.8668 40.1333C90.251 40.0431 89.6265 40.0276 89.007 40.0872C88.849 40.105 88.6932 40.1388 88.542 40.188C87.73 40.4062 86.9716 40.7897 86.3138 41.3147C85.6561 41.8397 85.1132 42.495 84.719 43.2397C84.1542 44.2882 83.8695 45.4654 83.8924 46.6569C83.8899 46.9455 83.9053 47.2339 83.9383 47.5206C84.0154 48.0333 84.1562 48.5343 84.3573 49.0119C84.5232 49.4382 84.8414 49.7872 85.2499 49.9907C85.6428 50.185 86.0854 50.2543 86.5186 50.1894L86.5099 50.1491Z" fill="white" stroke="#7564A0" stroke-miterlimit="10"/>
<path d="M110.103 51.2345C109.771 51.2616 109.439 51.1811 109.157 51.0049C108.874 50.8287 108.655 50.566 108.533 50.2556C108.449 50.0461 108.4 49.8245 108.386 49.5992C108.277 48.6549 108.203 47.9525 108.171 47.4976C108.125 46.9218 108.085 46.5073 108.039 46.1848C107.956 44.9181 107.824 43.637 107.666 42.3501C107.557 41.5899 107.402 40.837 107.201 40.0959C107.097 39.7517 106.936 39.4275 106.725 39.1372C106.577 38.9289 106.38 38.7615 106.151 38.6507C105.931 38.5406 105.686 38.4928 105.442 38.5125C105.176 38.5407 104.923 38.6402 104.71 38.8004C104.335 39.067 104.004 39.3904 103.728 39.7591C102.678 41.1213 102 42.7348 101.762 44.4402C101.642 45.229 101.5 46.4247 101.337 48.0273V49.4668C101.352 49.6854 101.352 49.9046 101.337 50.1232C101.359 50.553 101.213 50.9743 100.93 51.2978C100.798 51.4554 100.636 51.5843 100.453 51.6769C100.269 51.7695 100.07 51.8236 99.8649 51.8362C99.6671 51.8536 99.4679 51.8287 99.2804 51.7632C99.0929 51.6977 98.9213 51.5931 98.7771 51.4561C98.4664 51.1753 98.2583 50.7983 98.1859 50.3852L97.873 47.9957C97.697 46.7347 97.4042 44.8433 96.9948 42.3213C96.9251 41.6576 96.8091 40.9996 96.6475 40.3521L96.4724 39.3071C96.396 38.8585 96.3738 38.4022 96.4064 37.9482C96.4077 37.7578 96.4479 37.5697 96.5244 37.3954C96.6009 37.2211 96.7121 37.0644 96.8513 36.9349C97.1307 36.6758 97.4928 36.5248 97.873 36.5088C98.2229 36.4775 98.5716 36.5804 98.8489 36.7967C99.1422 37.0219 99.3555 37.3358 99.4574 37.692C99.4975 37.9262 99.5262 38.1622 99.5435 38.4002L99.7444 39.785L99.8305 40.0556C99.9281 39.8915 100.014 39.7476 100.072 39.6295C100.43 39.0124 100.819 38.4138 101.237 37.836C101.616 37.3559 102.05 36.9212 102.528 36.5404C103.261 35.9015 104.178 35.5133 105.146 35.4321C105.736 35.3936 106.328 35.4559 106.897 35.6163C107.849 35.8551 108.68 36.4398 109.227 37.2573C109.839 38.1108 110.266 39.0838 110.479 40.1132C110.79 41.5515 111.008 43.0083 111.133 44.4748L111.303 46.8211L111.38 47.9726L111.472 48.7212C111.518 48.98 111.546 49.2416 111.558 49.5042C111.599 49.9289 111.472 50.3527 111.205 50.6846C111.072 50.8512 110.905 50.9867 110.714 51.0816C110.524 51.1766 110.315 51.2288 110.103 51.2345Z" fill="white" stroke="#7564A0" stroke-miterlimit="10"/>
<path d="M118.596 51.292C117.878 51.3027 117.161 51.2438 116.454 51.1163C116.229 51.0751 115.997 51.117 115.8 51.2344C115.535 51.3966 115.232 51.4869 114.922 51.4964C114.512 51.5136 114.108 51.393 113.774 51.1538C113.437 50.9139 113.203 50.5549 113.119 50.149C113.058 49.871 113.028 49.5872 113.027 49.3026C112.96 46.8267 112.899 44.9746 112.844 43.7463C112.792 42.517 112.694 41.5123 112.628 40.8674L112.525 39.5085C112.465 38.9327 112.399 38.0892 112.321 36.9549L111.733 30.6415V29.9851C111.722 29.682 111.738 29.3786 111.779 29.0782C111.829 28.671 112.035 28.2993 112.353 28.0418C112.672 27.7633 113.078 27.6072 113.501 27.6013C113.976 27.5707 114.444 27.7266 114.807 28.036C114.979 28.1812 115.118 28.3606 115.217 28.5628C115.316 28.765 115.372 28.9856 115.381 29.2106C115.59 31.8017 115.728 33.6902 115.806 34.8936L115.88 35.0232C116.246 34.9813 116.608 34.9159 116.965 34.8274C117.424 34.7441 117.888 34.6979 118.354 34.6892C119.287 34.667 120.217 34.7775 121.118 35.0174C121.953 35.2503 122.727 35.6608 123.389 36.2208C124.665 37.2748 125.602 38.6842 126.081 40.2714C126.333 41.1257 126.472 42.0094 126.494 42.8999C126.511 44.386 126.176 45.855 125.518 47.1866C124.991 48.352 124.095 49.3104 122.97 49.913C122.249 50.3043 121.498 50.6384 120.725 50.9119C120.039 51.1493 119.321 51.2775 118.596 51.292ZM119.485 47.7077C120.013 47.5194 120.53 47.3002 121.032 47.0513C121.536 46.8113 121.941 46.4046 122.18 45.8997C122.602 45.0217 122.807 44.0553 122.78 43.0813C122.764 42.5197 122.681 41.962 122.533 41.4201C122.322 40.4409 121.798 39.5575 121.041 38.904C120.776 38.6963 120.487 38.5222 120.18 38.3857C119.632 38.1927 119.053 38.1039 118.472 38.1238C118.268 38.1252 118.065 38.1425 117.864 38.1756C117.448 38.2209 117.039 38.3116 116.644 38.4462C116.479 38.4938 116.334 38.5951 116.233 38.7341C116.148 38.8665 116.109 39.0233 116.121 39.1803V39.3502C116.383 42.255 116.526 44.42 116.566 45.8537V47.725C117.131 47.8858 117.716 47.9615 118.303 47.9495C118.708 47.9351 119.107 47.8533 119.485 47.7077Z" fill="white" stroke="#7564A0" stroke-miterlimit="10"/>
<path d="M140.638 51.3323C140.251 51.3354 139.874 51.2054 139.57 50.9638C139.281 50.7362 139.079 50.4162 138.996 50.057C138.958 49.9001 138.932 49.7402 138.919 49.5791C138.907 49.4652 138.907 49.3504 138.919 49.2365L138.847 47.7078C138.71 47.8381 138.565 47.9602 138.414 48.0734C138.266 48.1914 138.124 48.3173 137.989 48.4505C137.351 49.0506 136.652 49.5831 135.905 50.0397C135.021 50.5707 134.008 50.8476 132.978 50.84C131.635 50.8321 130.343 50.3243 129.353 49.415C128.292 48.4694 127.631 47.1535 127.504 45.7357C127.44 45.2373 127.408 44.7354 127.407 44.2329C127.393 42.8568 127.667 41.4931 128.21 40.2296C128.754 38.9661 129.556 37.831 130.564 36.8974C131.395 36.0646 132.383 35.4064 133.471 34.9615C134.558 34.5166 135.724 34.2939 136.898 34.3064C137.186 34.2953 137.474 34.3078 137.759 34.3438C138.561 34.4151 139.349 34.5922 140.104 34.8707C140.648 35.0822 141.151 35.3861 141.591 35.7689C141.813 35.9551 141.989 36.1915 142.102 36.4587C142.216 36.7259 142.265 37.0163 142.245 37.3062C142.225 37.4591 142.225 37.614 142.245 37.7668V38.2591L142.185 41.9701C142.185 43.0871 142.197 44.7118 142.22 46.8441V49.2681C142.224 49.5068 142.21 49.7454 142.179 49.9821C142.098 50.3546 141.896 50.6896 141.605 50.935C141.338 51.1754 140.997 51.3158 140.638 51.3323ZM132.992 47.3911C133.326 47.397 133.656 47.3271 133.959 47.1867C134.29 47.0268 134.603 46.8339 134.895 46.6109C136.085 45.6951 136.994 44.4606 137.515 43.0497C137.914 41.9555 138.217 40.8284 138.42 39.6813L138.707 38.0461C138.111 37.8642 137.495 37.7588 136.873 37.7323C136.714 37.7179 136.555 37.7179 136.396 37.7323C135.562 37.8323 134.757 38.1023 134.03 38.5255C133.304 38.9488 132.671 39.5165 132.171 40.1938C131.31 41.4021 130.826 42.8402 130.782 44.325C130.782 44.8418 130.848 45.3564 130.977 45.8566C131.077 46.3028 131.342 46.6946 131.718 46.9535C132.088 47.219 132.534 47.3591 132.989 47.3537L132.992 47.3911Z" fill="white" stroke="#7564A0" stroke-miterlimit="10"/>
<path d="M163.003 51.7584C162.784 51.7535 162.57 51.703 162.372 51.6104C162.174 51.5177 161.998 51.3848 161.855 51.2201C161.704 51.0485 161.589 50.8487 161.516 50.6323C161.443 50.4158 161.414 50.187 161.43 49.9591L161.476 49.6712L161.791 46.8556C161.875 45.9488 161.921 45.2837 161.941 44.8836C162.029 43.3751 161.884 41.862 161.51 40.3982C161.364 39.813 161.093 39.2661 160.718 38.7946C160.6 38.651 160.453 38.5341 160.287 38.4517C160.121 38.3693 159.939 38.3233 159.754 38.3167C159.445 38.2902 159.134 38.3357 158.846 38.4495C158.558 38.5634 158.3 38.7426 158.092 38.9731C157.355 39.8714 156.878 40.9546 156.711 42.1054C156.551 43.072 156.455 44.0482 156.424 45.0275L156.286 48.6665C156.275 48.861 156.244 49.0538 156.195 49.2422C156.097 49.6145 155.864 49.9363 155.54 50.1433C155.231 50.3502 154.864 50.4511 154.493 50.4312C154.135 50.3999 153.798 50.2488 153.537 50.0023C153.264 49.7525 153.092 49.4117 153.052 49.0436C153.008 48.7725 152.995 48.4971 153.014 48.2231C153.083 46.4727 153.123 45.159 153.132 44.2819C153.147 42.6377 152.984 40.9968 152.647 39.3877C152.591 39.0577 152.5 38.7345 152.377 38.4233C152.336 38.307 152.263 38.2048 152.167 38.1283C152.07 38.0519 151.954 38.0045 151.832 37.9914C151.69 37.9918 151.55 38.0232 151.422 38.0836C150.64 38.4868 150.007 39.1291 149.613 39.9174C149.053 41.3717 148.661 42.8852 148.442 44.4287C148.225 45.846 148.1 47.276 148.069 48.7096C148.068 48.9605 148.034 49.2102 147.969 49.4524C147.903 49.8198 147.697 50.147 147.395 50.365C147.089 50.5975 146.71 50.712 146.327 50.6875C145.954 50.6723 145.598 50.5232 145.325 50.2671C145.049 50.0172 144.88 49.6693 144.855 49.2969C144.823 48.9745 144.803 48.6377 144.797 48.2174C144.791 47.797 144.797 47.561 144.797 47.3853L144.657 40.9941C144.657 40.3377 144.619 39.7792 144.585 39.3906L144.507 37.8561C144.476 37.3461 144.476 36.8346 144.507 36.3245C144.52 36.0208 144.589 35.7221 144.711 35.4436C144.835 35.1693 145.041 34.9401 145.299 34.7872C145.552 34.6346 145.843 34.5595 146.138 34.5713C146.511 34.5778 146.872 34.7118 147.159 34.9513C147.303 35.0599 147.424 35.196 147.515 35.3516C147.606 35.5072 147.666 35.6794 147.69 35.8581C147.72 36.0566 147.739 36.2565 147.748 36.457V36.883L147.814 36.955L148.101 36.6268L148.755 36.1086C149.032 35.869 149.325 35.6497 149.633 35.4522C150.303 34.9803 151.112 34.748 151.93 34.7929C152.613 34.8123 153.279 35.0108 153.861 35.3687C154.466 35.7524 154.947 36.3046 155.245 36.9579L155.374 37.1681L155.727 36.7736C156.209 36.2073 156.817 35.7621 157.502 35.4736C158.187 35.1852 158.929 35.0615 159.67 35.1125C160.091 35.1278 160.509 35.1778 160.922 35.2622C161.669 35.4286 162.351 35.8098 162.885 36.3591C163.859 37.4456 164.525 38.7751 164.811 40.2082C165.14 41.8057 165.27 43.4381 165.198 45.0678C165.198 45.4968 165.132 46.1445 165.055 47.0399L164.653 50.342C164.616 50.757 164.42 51.1413 164.105 51.413C163.797 51.6687 163.401 51.7927 163.003 51.7584Z" fill="white" stroke="#7564A0" stroke-miterlimit="10"/>
<path d="M168.479 52.0549C168.128 51.8562 167.839 51.5656 167.641 51.2142C167.302 50.636 167.119 49.9791 167.11 49.3084C167.078 48.8714 167.078 48.4326 167.11 47.9956L167.299 44.8633L167.391 43.2655L167.437 41.9527V40.6399L167.523 39.1084C167.569 38.452 167.606 37.9338 167.646 37.6113C167.684 37.2321 167.87 36.8832 168.163 36.6411C168.472 36.3941 168.863 36.2756 169.257 36.3101C169.613 36.3382 169.948 36.4927 170.202 36.7459C170.455 36.999 170.61 37.3344 170.64 37.6919C170.654 37.8047 170.654 37.9189 170.64 38.0316C170.565 40.0037 170.502 41.4604 170.442 42.4594L170.39 43.4123H170.456L170.135 48.7499C170.136 49.0906 170.249 49.4216 170.456 49.6913C170.676 49.964 170.79 50.308 170.775 50.6586C170.758 50.9896 170.631 51.3055 170.416 51.5568C170.251 51.7685 170.037 51.9373 169.793 52.0491C169.551 52.1576 169.286 52.2051 169.021 52.1873C168.834 52.1771 168.65 52.1322 168.479 52.0549ZM169.34 34.2833C168.934 34.2612 168.546 34.1132 168.228 33.8597C167.91 33.6062 167.678 33.2599 167.566 32.8686C167.453 32.4773 167.464 32.0605 167.598 31.6759C167.731 31.2913 167.981 30.958 168.312 30.7221C168.803 30.3403 169.415 30.151 170.034 30.1895C170.538 30.2315 171.007 30.4665 171.343 30.8459C171.551 31.0699 171.703 31.3407 171.786 31.6356C171.869 31.9305 171.881 32.241 171.82 32.5413C171.759 32.8415 171.627 33.1228 171.436 33.3617C171.245 33.6006 170.999 33.7903 170.72 33.9148L170.198 34.1192C169.927 34.2359 169.634 34.2919 169.34 34.2833Z" fill="white" stroke="#7564A0" stroke-miterlimit="10"/>
<path d="M175.367 59.4624C173.042 58.6582 171.748 57.0959 171.484 54.7755C171.396 54.3011 171.361 53.8182 171.381 53.336C171.42 52.8974 171.626 52.4906 171.955 52.1988C172.113 52.0598 172.298 51.9549 172.499 51.8905C172.699 51.8261 172.91 51.8037 173.12 51.8246C173.279 51.8444 173.437 51.8772 173.591 51.9225C173.862 52.0533 174.092 52.2571 174.256 52.5112C174.419 52.7653 174.508 53.0597 174.515 53.3619C174.592 54.145 174.624 54.5855 174.618 54.6776C174.721 55.1856 175.006 55.6383 175.419 55.9501C175.598 56.1336 175.815 56.2758 176.054 56.3668C176.294 56.4578 176.55 56.4954 176.805 56.4769C177.778 56.4595 178.735 56.2358 179.615 55.8205C179.967 55.6685 180.283 55.4445 180.543 55.163C180.804 54.8814 181.003 54.5484 181.128 54.1853C181.417 53.4287 181.61 52.6384 181.702 51.8332V50.9465C181.682 50.6734 181.682 50.3991 181.702 50.126L180.961 50.4542C180.026 50.8653 179.01 51.0587 177.989 51.0198C176.969 50.9809 175.97 50.7108 175.069 50.2296C173.404 49.4024 172.389 47.8939 172.024 45.704C171.903 44.6651 172.017 43.6123 172.356 42.6235C173.043 40.4803 174.426 38.6302 176.286 37.3695C177.566 36.4043 179.147 35.9249 180.746 36.0164C181.232 36.0698 181.712 36.1661 182.181 36.3043C182.586 36.4116 182.972 36.5774 183.329 36.7966L183.544 36.883C183.614 36.909 183.686 36.9264 183.76 36.9348H183.831C184.065 36.9223 184.299 36.9577 184.518 37.0389C184.738 37.1201 184.939 37.2453 185.109 37.4069C185.273 37.5707 185.4 37.7681 185.481 37.9858C185.563 38.2034 185.596 38.4361 185.579 38.6679V39.4308C185.579 40.0872 185.579 40.6198 185.542 40.9336L185.398 43.4498C185.287 45.6752 185.189 47.3507 185.111 48.4879H185.143L184.974 50.8717C184.942 51.3236 184.908 51.672 184.867 51.9225C184.751 53.2537 184.416 54.5563 183.874 55.7773C183.367 56.9323 182.497 57.8896 181.397 58.5037C180.22 59.1357 178.929 59.5271 177.6 59.6552C177.205 59.718 176.803 59.7335 176.403 59.7013C176.049 59.6649 175.701 59.5846 175.367 59.4624ZM178.74 47.5753C179.035 47.5559 179.326 47.4898 179.601 47.3795C179.907 47.2558 180.203 47.1065 180.485 46.9333C180.806 46.7404 181.059 46.6022 181.211 46.5245L181.656 46.2366L182.035 45.9746C182.101 44.0716 182.213 42.1197 182.35 40.1218C181.921 39.6586 181.334 39.3732 180.706 39.3214C180.192 39.3011 179.678 39.3793 179.193 39.5517C178.717 39.6685 178.285 39.9215 177.95 40.2801C176.935 41.08 176.144 42.1305 175.654 43.3289C175.496 43.7023 175.399 44.099 175.367 44.5035C175.332 45.0721 175.431 45.6409 175.654 46.1646C175.812 46.5431 176.072 46.8694 176.406 47.106C177.096 47.5655 177.937 47.7369 178.751 47.5839L178.74 47.5753Z" fill="white" stroke="#7564A0" stroke-miterlimit="10"/>
<path d="M192.39 54.0443C191.585 53.9696 190.797 53.7614 190.06 53.4282C189.094 52.9871 188.222 52.3624 187.494 51.5886C186.883 50.8981 186.423 50.0875 186.142 49.2087C185.862 48.3299 185.767 47.402 185.863 46.4843C185.967 45.6275 186.153 44.7828 186.42 43.9623C186.935 42.2398 187.846 40.6622 189.078 39.356C189.758 38.6506 190.592 38.1134 191.515 37.7866C192.437 37.4599 193.423 37.3526 194.393 37.4732C195.03 37.5146 195.652 37.6854 196.221 37.9755C196.79 38.2655 197.294 38.6686 197.703 39.1603L198.067 39.6209C198.238 39.8204 198.357 40.0586 198.415 40.3147C198.415 40.3867 198.486 40.4702 198.633 40.5709C199.421 41.3804 200.025 42.3515 200.404 43.4175C200.782 44.4836 200.926 45.6191 200.825 46.7462C200.795 47.1915 200.728 47.6335 200.625 48.0677C200.418 49.2355 199.928 50.334 199.196 51.2657C198.465 52.1974 197.515 52.9333 196.431 53.4081C195.155 53.9433 193.769 54.1616 192.39 54.0443ZM192.712 50.7623C193.294 50.8286 193.884 50.7771 194.446 50.6109C195.009 50.4448 195.533 50.1674 195.986 49.795C196.438 49.433 196.81 48.9812 197.08 48.4679C197.349 47.9546 197.509 47.3909 197.551 46.8124C197.654 45.956 197.534 45.0873 197.204 44.2908C196.873 43.4943 196.343 42.797 195.665 42.2666C195.528 42.1652 195.372 42.0936 195.206 42.0565C194.962 41.9693 194.742 41.8259 194.563 41.6379C194.385 41.4499 194.253 41.2225 194.178 40.974L194.101 40.7235C194.041 40.7212 193.982 40.7055 193.928 40.6775H193.693C192.851 40.7068 192.048 41.0377 191.429 41.6102C189.954 43.1197 189.104 45.1342 189.052 47.2472C189.009 47.6408 189.056 48.0391 189.189 48.4121C189.322 48.785 189.537 49.123 189.818 49.4006C190.577 50.2088 191.608 50.7054 192.712 50.794V50.7623Z" fill="white" stroke="#7564A0" stroke-miterlimit="10"/>
<path d="M0.247375 46.8614C0.898901 39.9519 5.70067 34.2171 11.5902 30.9265C14.2624 29.3546 17.1497 28.2031 19.928 26.8356C20.7403 26.4354 21.5439 25.9719 22.0921 25.2205C24.2304 22.3416 19.3626 20.6142 22.9934 20.2688C22.537 16.624 20.9527 13.1521 18.7972 10.2156C18.5554 9.93332 18.3998 9.58722 18.3489 9.21862C18.298 8.85001 18.354 8.4745 18.5102 8.13698C18.9063 7.32512 19.7357 7.17542 20.5566 7.24451C22.2529 7.34527 23.4009 8.6667 24.6007 9.69735C24.7126 7.70802 25.3211 -2.29624 28.9576 0.484803C31.0413 3.52206 31.0011 8.62352 31.0384 12.2423C31.9798 11.6118 32.8581 10.8547 34.032 10.9353C34.9791 10.9353 35.9005 11.7011 35.734 12.7173C34.4683 15.3861 32.6027 17.7526 32.0659 20.7582C34.4195 20.8042 32.0659 22.6669 32.5309 23.925C32.8495 28.9458 50.7679 29.107 54.4589 44.6216C58.0983 58.5008 46.6693 70.6384 33.4321 72.691C33.2685 72.7285 33.1107 72.7716 33.2255 72.9991C33.613 74.5595 32.2783 76.4912 30.5735 75.9068C29.9994 75.3483 29.6952 75.8118 29.2675 76.1774C29.034 76.3874 28.76 76.5472 28.4626 76.6469C28.1651 76.7467 27.8504 76.7842 27.5379 76.7572C27.2254 76.7303 26.9217 76.6393 26.6456 76.4901C26.3695 76.3409 26.1267 76.1365 25.9324 75.8895C25.7372 75.6362 25.5564 75.6592 25.3038 75.7053C23.6535 76.1688 22.0778 74.5249 22.7896 72.9012C9.95138 71.2919 -1.8708 60.5449 0.247375 46.8614Z" fill="#5C2E10"/>
<path d="M28.062 72.2678C27.132 72.3801 26.205 72.2678 25.2779 72.2419C24.6723 72.0433 24.3451 71.528 23.9663 71.0904C23.6792 70.765 23.5329 70.3562 23.2487 70.0309C23.4008 70.6844 23.8228 71.1825 24.2217 71.6863C24.3422 71.8331 24.5575 71.931 24.4858 72.1786C21.475 71.9912 18.5183 71.2892 15.7433 70.1029C12.3542 68.4038 9.44702 65.8749 7.29064 62.7501C5.31489 59.9852 4.0769 56.7593 3.69434 53.3792C3.2546 50.1128 3.58188 46.7885 4.6501 43.6715C5.58382 41.0387 7.0495 38.6276 8.95534 36.5894C11.2773 34.0645 14.0642 32.1328 16.9344 30.3479C17.0781 30.2346 17.2568 30.1755 17.4395 30.1809C17.6663 30.4688 17.362 30.5494 17.2214 30.6415C16.3603 31.2173 15.5395 31.8219 14.7272 32.4495C12.6862 33.983 10.8933 35.8232 9.41169 37.905C7.48273 40.6279 6.31443 43.8185 6.02777 47.1464C5.74076 50.4082 6.02777 53.6067 7.17584 56.7044C7.20506 56.8563 7.27788 56.9964 7.38536 57.1074C7.45998 57.0124 7.38536 56.9232 7.37101 56.8483C6.48662 54.3932 6.05292 51.7977 6.09092 49.1875C6.06999 46.5919 6.56771 44.0184 7.5547 41.6188C8.50812 39.3485 9.87024 37.2737 11.5729 35.4982C13.8002 33.1404 16.4264 31.3008 19.1501 29.5821C20.479 28.8051 21.7543 27.9395 22.9674 26.991C23.645 26.4677 24.0977 25.7047 24.2332 24.8578C24.2877 24.4691 24.3738 24.0632 24.0782 23.7062C23.7912 22.8425 23.4496 22.0249 22.7924 21.3714C22.6862 21.2793 22.5398 21.167 22.8268 21.1583C23.2852 21.1479 23.7349 21.2851 24.1098 21.5499C24.649 21.9081 25.0532 22.4372 25.2578 23.0527C25.3353 23.2916 25.4415 23.5047 25.6998 23.5191C25.9581 23.5335 26.0586 23.2916 26.1734 23.0815C26.7317 22.0182 27.5407 21.108 28.5298 20.43C28.946 20.1421 29.0321 20.1795 29.1584 20.6833C29.3613 21.5726 29.4577 22.483 29.4454 23.3953C29.4454 23.6457 29.3679 23.971 29.7324 24.0517C30.0969 24.1323 30.1744 23.8444 30.3064 23.5709C30.6824 22.6755 31.2191 21.9299 32.2553 21.5556C32.0301 22.0392 31.8615 22.5474 31.753 23.0699C31.5435 24.5094 32.0773 25.6351 33.1651 26.5246C34.0262 27.23 35.0537 27.6762 36.0582 28.1368C38.7992 29.3978 41.5661 30.6098 44.1234 32.2336C46.9935 34.053 49.502 36.264 51.339 39.143C53.0926 41.9096 53.9709 44.9469 54.2321 48.2116C54.6482 53.3648 53.2419 57.9625 50.1478 62.0621C49.017 63.562 48.3368 64.8546 46.6376 65.7672C46.2502 65.9745 45.7364 66.5417 44.9356 67.1462C43.3427 68.3554 40.7136 69.5818 39.3187 70.1547C37.4409 70.9053 35.4928 71.4656 33.5038 71.8274C33.3891 71.8345 33.2741 71.8345 33.1594 71.8274C33.1594 71.574 33.3689 71.5395 33.5124 71.4733C34.7239 70.7706 35.8134 69.8751 36.7385 68.8218C36.8986 68.6696 37.0002 68.4658 37.0255 68.246C35.5387 70.0108 33.897 71.3984 31.7444 72.0548C30.727 72.2331 29.694 72.3054 28.6618 72.2707C28.5872 72.026 28.7967 71.9166 28.9144 71.7727C30.1195 70.3473 30.8713 68.5925 31.0728 66.7345C31.0008 66.803 30.9437 66.8856 30.9052 66.9773C30.8667 67.069 30.8475 67.1677 30.8489 67.2671C30.5768 68.9327 29.8314 70.4841 28.702 71.7352C28.5182 71.9457 28.3021 72.1255 28.062 72.2678Z" fill="#7564A0"/>
<path d="M17.4367 30.2183C15.2889 31.4481 13.2546 32.8672 11.3577 34.4589C9.62564 35.9144 8.10674 37.6076 6.84583 39.4884C4.56668 43.0479 3.44731 47.2302 3.64274 51.4561C3.76474 54.1989 4.39648 56.8947 5.50547 59.4048C6.81648 62.1965 8.68645 64.6876 10.9989 66.723C12.3752 67.9574 13.8949 69.0207 15.5252 69.8898C15.6113 69.9359 15.7117 69.9646 15.7433 70.0769C13.6126 69.2684 11.6081 68.1583 9.79061 66.7806C5.85563 63.821 2.93668 60.1015 1.61641 55.2965C-0.392705 48.1223 1.42984 39.6582 8.29813 34.2142C11.1482 31.9456 14.3513 30.3219 17.6348 28.8335C18.8981 28.3021 20.1295 27.6974 21.3229 27.0227C22.471 26.3346 23.289 25.4047 23.4554 24.0199C23.5702 23.0526 23.2402 22.1947 22.7809 21.3713C23.5731 21.9241 23.929 22.7302 24.0955 23.6514C24.2935 25.1082 23.7252 26.2425 22.5944 27.1062C21.1134 28.2577 19.4745 29.1531 17.8615 30.0916C17.7265 30.1535 17.5835 30.1962 17.4367 30.2183Z" fill="#715091"/>
<path d="M28.3691 1.04333C28.9431 1.61912 29.1239 2.38779 29.3277 3.12767C29.7956 4.93887 30.0717 6.79453 30.1514 8.66384C30.2576 10.0696 30.2576 11.4814 30.1514 12.8872C30.1432 13.1154 30.0536 13.333 29.8989 13.5004C29.1738 14.3409 28.5182 15.2392 27.9385 16.1865C27.5133 14.9212 27.0011 13.6871 26.4059 12.4928C26.2825 11.7443 26.4288 10.9785 26.2939 10.2329C26.2973 9.29091 26.3538 8.34991 26.4633 7.41439C26.5927 5.92787 26.8618 4.45693 27.2669 3.02115C27.4179 2.47744 27.6408 1.9565 27.9299 1.47229C28.0275 1.29092 28.128 1.09228 28.3691 1.04333Z" fill="#65BAAF"/>
<path d="M20.0084 8.10533C20.5824 7.89517 21.0876 8.10533 21.5726 8.34141C22.7809 8.89416 23.6449 9.85572 24.4083 10.9094C25.703 12.7094 26.6815 14.718 27.3014 16.8486C27.3384 16.931 27.3574 17.0203 27.3574 17.1106C27.3574 17.2009 27.3384 17.2902 27.3014 17.3726C26.5739 18.7265 25.9964 20.1562 25.5793 21.6363C25.5767 21.651 25.571 21.6651 25.5626 21.6775C25.5542 21.6899 25.5433 21.7004 25.5306 21.7082C25.5306 21.7082 25.4846 21.6881 25.4617 21.6737C25.2177 21.1872 25.2005 20.6488 25.0828 20.1335C24.2829 16.5495 22.8228 13.1468 20.7776 10.1004C20.4806 9.70202 20.2311 9.27012 20.0342 8.81355C19.9538 8.58611 19.8362 8.33853 20.0084 8.10533Z" fill="#65BAAF"/>
<path d="M34.3075 11.7731C34.8816 11.9746 35.0624 12.3028 34.827 12.867C34.7415 13.0681 34.6378 13.2608 34.5171 13.4428C32.9815 15.746 31.7818 18.1873 31.2164 20.928C31.1073 21.4549 30.5103 21.5931 30.2262 22.117C30.1228 21.5412 30.0454 21.0547 29.9392 20.5826C29.8963 20.3721 29.8269 20.1679 29.7325 19.9751C29.4685 19.4281 29.1355 19.3446 28.3491 19.5836C28.2171 19.4166 28.3347 19.264 28.3921 19.1201C29.3766 16.6931 30.6223 14.4332 32.5826 12.6454C33.0762 12.1819 33.5613 11.704 34.3075 11.7731Z" fill="#65BAAF"/>
<path d="M20.0083 8.10535C20.0436 8.61923 20.2338 9.11022 20.5537 9.51314C22.7905 12.7222 24.3753 16.3418 25.2177 20.1651C25.3491 20.6566 25.4308 21.1601 25.4616 21.6679C25.0676 21.2209 24.5897 20.8561 24.0553 20.5941C23.817 20.4962 23.8371 20.2745 23.8142 20.0903C23.3492 16.3477 21.8567 13.0427 19.6984 9.9968C19.5695 9.82499 19.4516 9.64518 19.3453 9.45844C18.9607 8.75886 19.2104 8.25793 20.0083 8.10535Z" fill="#61B0BC"/>
<path d="M28.3692 1.04336C27.5082 2.13159 27.2212 3.43862 26.9801 4.74565C26.6681 6.23957 26.4971 7.75963 26.4692 9.28571C26.4692 9.59663 26.3199 9.89604 26.386 10.2156C26.4578 10.9494 26.4492 11.6889 26.3601 12.4209L25.5163 11.0764C25.4272 10.917 25.3873 10.7346 25.4015 10.5524C25.4876 8.02762 25.6655 5.52584 26.386 3.09603C26.6041 2.34751 26.8595 1.60474 27.425 1.03184C27.7923 0.65758 28.0019 0.669095 28.3692 1.04336Z" fill="#61B0BC"/>
<path d="M32.4075 73.2524C32.4708 73.4404 32.4958 73.6392 32.4811 73.837C32.4663 74.0348 32.412 74.2277 32.3214 74.404C32.2418 74.6049 32.1087 74.7799 31.9366 74.9099C31.7644 75.0399 31.56 75.1198 31.3455 75.141C31.1219 75.1631 30.8968 75.1162 30.7004 75.0066C30.504 74.897 30.3456 74.73 30.2463 74.5278C30.12 74.3148 30.0281 74.047 29.7182 74.096C29.4082 74.1449 29.3852 74.3839 29.3393 74.6516C29.2694 74.9857 29.0946 75.2885 28.8404 75.5155C28.5862 75.7424 28.2661 75.8816 27.9272 75.9126C27.6127 75.932 27.2995 75.8587 27.0261 75.7016C26.7527 75.5446 26.5311 75.3107 26.3888 75.0287C26.2855 74.8301 26.2453 74.5796 25.9726 74.5249C25.6196 74.237 25.8033 73.9664 26.007 73.7188C26.1299 73.5947 26.2802 73.5014 26.4458 73.4464C26.6113 73.3913 26.7875 73.3762 26.9599 73.4021C28.6244 73.4354 30.2891 73.3546 31.9425 73.1603C32.0222 73.1427 32.1046 73.1417 32.1846 73.1576C32.2646 73.1735 32.3405 73.2057 32.4075 73.2524Z" fill="#7564A0"/>
<path d="M34.3075 11.773C33.6646 11.8507 33.1881 12.2452 32.7346 12.6367C31.4227 13.8488 30.3421 15.2908 29.5459 16.8917C29.074 17.747 28.6774 18.6419 28.3605 19.5663C27.7865 19.8916 27.3215 20.4011 26.7561 20.7754C26.997 19.9205 27.325 19.0928 27.7348 18.3053C28.565 16.5481 29.6663 14.9334 30.9982 13.5205C31.7358 12.7634 32.5136 12.035 33.5813 11.7673C33.816 11.6805 34.0742 11.6825 34.3075 11.773Z" fill="#61B0BC"/>
<path d="M32.4074 73.2524C30.5314 73.4998 28.6391 73.6009 26.7474 73.5547C26.0988 73.5547 25.7946 73.9462 25.961 74.5278C25.7285 74.5105 25.5707 74.6804 25.387 74.7696C25.1608 74.8884 24.9053 74.9396 24.6509 74.9172C24.3966 74.8947 24.154 74.7995 23.9519 74.6429C23.7781 74.5289 23.6409 74.3668 23.5568 74.1763C23.4728 73.9857 23.4455 73.7749 23.4783 73.5691C23.5472 73.0538 23.7194 72.9271 24.2274 72.9732C26.7742 73.2175 29.3398 73.1837 31.8793 72.8724C32.2007 72.8264 32.3672 72.9242 32.4074 73.2524Z" fill="#715091"/>
<path d="M28.062 72.2678C28.8083 71.4531 29.5344 70.6297 29.9879 69.5933C30.3644 68.7853 30.6188 67.9257 30.7427 67.0426C30.7529 66.9442 30.7751 66.8475 30.8088 66.7547C30.8575 66.628 30.9121 66.4668 31.0786 66.5215C31.245 66.5762 31.2249 66.7 31.2048 66.8497C30.8891 68.8649 30.1486 70.6556 28.7279 72.1382C28.6986 72.1777 28.6736 72.2202 28.6533 72.2649C28.4587 72.3091 28.257 72.31 28.062 72.2678Z" fill="#715091"/>
<path d="M31.7358 72.0519C32.5251 71.6143 33.3718 71.2947 34.1181 70.7707C35.1134 70.0977 36.0034 69.2797 36.7586 68.3438C36.8562 68.2171 36.9366 67.9868 37.1203 68.125C37.3039 68.2632 37.1576 68.4561 37.0428 68.5943C36.3845 69.398 35.6395 70.126 34.8213 70.765C34.2874 71.1824 33.6732 71.4761 33.125 71.8561C32.6715 71.9773 32.2051 72.0431 31.7358 72.0519Z" fill="#715091"/>
<path d="M24.4859 72.1671C23.9979 71.5712 23.4555 71.0155 23.1599 70.2756C23.0967 70.1259 22.8901 69.9446 23.1398 69.8093C23.3895 69.6739 23.4268 69.9359 23.5014 70.0971C23.9197 70.9407 24.528 71.6749 25.278 72.2419C25.0116 72.269 24.7425 72.2436 24.4859 72.1671Z" fill="#715091"/>
<path d="M17.4368 30.2183C18.78 29.3546 20.2208 28.6464 21.5267 27.7165C22.2098 27.2328 22.9331 26.7981 23.4153 26.0697C23.8161 25.5179 24.0185 24.846 23.9893 24.1639C23.9893 23.9912 23.9205 23.7954 24.0841 23.6486C24.394 23.6745 24.3711 23.9019 24.3711 24.1236C24.4457 25.5803 23.7052 26.6052 22.6088 27.4171C20.947 28.6435 19.1646 29.6741 17.4425 30.8171C15.2526 32.2738 13.166 33.8716 11.4152 35.8322C8.86074 38.6593 7.13864 41.9067 6.48999 45.7155C6.21944 47.4151 6.13474 49.1392 6.23741 50.8573C6.32077 52.8901 6.74277 54.8947 7.48593 56.7878C7.52037 56.88 7.55195 56.975 7.57778 57.0757C7.60361 57.1765 7.64666 57.3204 7.50889 57.3809C7.37113 57.4413 7.25632 57.3319 7.20753 57.2024C7.06445 56.8858 6.93799 56.562 6.82867 56.2322C6.36603 54.6841 6.05741 53.0939 5.90735 51.4849C5.61381 48.6009 5.90673 45.6872 6.76839 42.9201C7.53807 40.5889 8.73648 38.423 10.3016 36.5346C12.2734 34.1106 14.7044 32.2162 17.2531 30.4889C17.3248 30.4227 17.5315 30.4284 17.4368 30.2183Z" fill="#715091"/>
<path d="M11.5787 47.892C11.6791 45.6452 12.1868 43.4355 13.0769 41.3712C14.225 38.6564 15.8954 36.3043 17.8557 34.1279C19.044 32.8093 20.3126 31.5714 21.5869 30.3421C22.3676 29.5849 23.1712 28.8508 23.883 28.0246C24.3926 27.4799 24.7465 26.8076 24.9077 26.0784C24.9306 25.9431 24.9708 25.7473 25.1717 25.7905C25.3727 25.8337 25.298 26.0122 25.2837 26.1302C25.1571 27.0055 24.7297 27.8089 24.0753 28.4017C22.3303 30.1694 20.5565 31.9053 18.8258 33.673C16.7162 35.7739 14.984 38.2244 13.7055 40.9164C12.8109 42.8045 12.2524 44.835 12.0551 46.916C12.0149 47.3968 11.9776 47.8718 11.9719 48.3555C11.9719 48.5225 11.9719 48.7355 11.7538 48.7355C11.4897 48.7355 11.5959 48.4994 11.5787 48.3555C11.5615 48.2116 11.5729 48.0417 11.5787 47.892Z" fill="#715091"/>
<path d="M30.7457 24.613C30.8031 24.4374 30.6136 24.0372 30.9208 24.0372C31.2996 24.0372 31.1245 24.4518 31.1331 24.6792C31.1618 25.8308 31.7617 26.6714 32.6285 27.348C34.4683 28.7875 36.5262 29.8872 38.4463 31.2C40.5733 32.6258 42.5226 34.3018 44.2526 36.192C45.8862 37.9737 47.1688 40.0495 48.0326 42.3098C48.0958 42.4739 48.1819 42.6466 47.9695 42.7301C47.7571 42.8136 47.7198 42.6034 47.6825 42.4796C47.0713 40.8869 46.2426 39.387 45.2199 38.023C44.0975 36.53 42.8123 35.1675 41.3882 33.9609C39.0002 31.9082 36.2937 30.319 33.6761 28.6032C32.6601 27.9382 31.601 27.2847 31.0671 26.1043C30.8379 25.6418 30.7274 25.1292 30.7457 24.613Z" fill="#715091"/>
<path d="M22.0061 38.7198C22.162 37.167 22.549 35.6463 23.1542 34.2085C24.0152 32.0637 25.3097 30.1521 26.6185 28.2636C26.8889 27.9178 27.0787 27.5157 27.1741 27.0868C27.2694 26.6579 27.2679 26.213 27.1695 25.7848C27.1294 25.6293 27.0174 25.4278 27.2614 25.3731C27.5054 25.3184 27.5484 25.5603 27.5685 25.7301C27.8555 27.0487 27.2815 28.1052 26.541 29.1215C24.7959 31.5369 23.3264 34.0905 22.6806 37.0443C22.5346 37.6699 22.4386 38.3063 22.3936 38.9472C22.3936 39.1286 22.4797 39.4251 22.1984 39.428C21.9172 39.4309 22.0234 39.1401 22.0004 38.953C21.997 38.8752 21.9989 38.7973 22.0061 38.7198Z" fill="#715091"/>
<path d="M33.0274 40.5076V41.5987C33.0274 41.7254 33.0532 41.9039 32.8695 41.9039C32.6859 41.9039 32.6572 41.7599 32.6399 41.616C32.6328 41.5 32.6328 41.3837 32.6399 41.2677C32.7088 38.1239 32.0659 35.1068 31.0413 32.1587C30.5984 30.8421 30.0543 29.5619 29.4139 28.3298C29.3419 28.1999 29.2768 28.0663 29.2187 27.9296C29.1584 27.7741 29.0809 27.5669 29.2589 27.4834C29.4828 27.3797 29.5086 27.6388 29.5746 27.7713C30.9985 30.4778 32.0196 33.3788 32.6055 36.3821C32.9014 37.7368 33.0429 39.1209 33.0274 40.5076Z" fill="#715091"/>
<path d="M47.6739 57.4327C47.2233 57.3406 46.7956 57.3205 46.4311 57.0556C46.0178 56.7476 46.0035 56.261 46.4311 55.9933C46.8026 55.765 47.2309 55.6466 47.6665 55.6516C48.1022 55.6567 48.5276 55.7851 48.8937 56.0221C49.307 56.31 49.2869 56.7188 48.8937 57.0326C48.5005 57.3464 48.0585 57.2802 47.6739 57.4327Z" fill="#715091"/>
<path d="M16.3604 57.4327C15.8753 57.3147 15.3874 57.3061 15.0229 56.9289C14.9594 56.8821 14.9078 56.821 14.8722 56.7505C14.8366 56.68 14.8181 56.602 14.8181 56.523C14.8181 56.444 14.8366 56.366 14.8722 56.2955C14.9078 56.225 14.9594 56.1639 15.0229 56.1171C15.5969 55.5096 17.1095 55.5067 17.6979 56.1171C17.7614 56.1639 17.813 56.225 17.8485 56.2955C17.8841 56.366 17.9027 56.444 17.9027 56.523C17.9027 56.602 17.8841 56.68 17.8485 56.7505C17.813 56.821 17.7614 56.8821 17.6979 56.9289C17.3075 57.3176 16.7966 57.3118 16.3604 57.4327Z" fill="#715091"/>
<path d="M32.0603 60.7493C31.3169 60.7493 30.476 59.7762 30.542 59.0075C30.5401 58.9157 30.5727 58.8266 30.6333 58.7577C30.6939 58.6889 30.7781 58.6455 30.8692 58.6362C30.9669 58.6155 31.0688 58.634 31.1531 58.6878C31.2373 58.7417 31.2972 58.8265 31.3198 58.924C31.3709 59.1813 31.4681 59.4271 31.6068 59.6495C31.8938 60.0468 32.2469 60.044 32.531 59.6495C32.6815 59.4123 32.7857 59.1485 32.8381 58.8722C32.8569 58.7802 32.9103 58.6989 32.9873 58.6453C33.0643 58.5917 33.1588 58.5698 33.2514 58.5843C33.3434 58.5883 33.4306 58.6259 33.4968 58.6901C33.5629 58.7543 33.6032 58.8406 33.6102 58.9327C33.7365 59.7215 32.841 60.7579 32.0603 60.7493Z" fill="#5C2F10"/>
<path d="M29.4742 51.1797C27.379 54.9569 23.3665 56.7303 20.5165 55.1411C18.9895 54.2775 17.741 52.7545 17.5717 50.8228C17.4224 49.153 17.9218 47.0802 18.8977 45.3154C20.1118 43.1245 22.2328 41.1122 24.1357 40.5335C25.5191 40.116 27.3905 40.0182 28.5873 40.6861C29.1572 41.0362 29.6323 41.5217 29.9708 42.0996C30.2774 42.6025 30.5396 43.1314 30.7543 43.6801C31.5723 45.7155 30.8433 48.7125 29.4742 51.1797Z" fill="#EEE8E8"/>
<path d="M29.0723 46.6771C29.0723 49.3459 26.624 51.8074 24.6235 51.8074C23.4755 51.8074 22.0031 51.5799 21.3085 50.4197C20.9648 49.9067 20.7664 49.3097 20.7345 48.6924C20.7172 48.4045 20.7345 47.7913 20.7345 46.9247C20.7546 44.2559 23.4554 41.8521 25.4587 41.8521C27.4621 41.8521 29.0723 44.0055 29.0723 46.6771Z" fill="#FFC557"/>
<path d="M28.2141 46.5734C28.2141 48.8161 26.7302 50.9897 24.8933 50.9897C23.8055 50.9897 22.5111 50.886 21.96 49.8122C21.584 49.0752 21.5266 47.8776 21.5266 46.9649C21.5266 44.7223 23.2487 42.7473 25.0713 42.7473C26.8938 42.7473 28.2141 44.325 28.2141 46.5734Z" fill="#5B2E13"/>
<path d="M27.0172 44.9008C27.0469 44.9462 27.0867 44.9839 27.1336 45.0109C27.1805 45.0379 27.233 45.0534 27.287 45.0563L27.5941 45.0736H28.2428C28.2791 45.0764 28.3155 45.0764 28.3518 45.0736L28.8541 45.0246L28.7192 44.5957C28.7163 44.5771 28.7095 44.5595 28.6991 44.5438L28.4609 43.9911L27.7434 44.3279C27.7041 44.3455 27.6625 44.3571 27.6199 44.3625L27.2066 44.4085C27.1732 44.4121 27.1408 44.4226 27.1116 44.4395C27.0825 44.4563 27.0571 44.4791 27.0373 44.5064L27 44.5582C26.9697 44.6049 26.9536 44.6594 26.9536 44.7151C26.9536 44.7708 26.9697 44.8253 27 44.872L27.0172 44.9008Z" fill="white"/>
<path d="M33.7879 50.8573C35.51 54.8216 39.3331 56.975 42.3209 55.668C43.9253 54.9655 45.3145 53.5606 45.6675 51.6634C45.9746 50.0224 45.6675 47.8949 44.8782 46.0553C43.8737 43.7521 41.9621 41.5469 40.1224 40.7897C38.7906 40.2399 36.9336 39.9606 35.6765 40.5018C35.0742 40.7913 34.5548 41.2291 34.1668 41.7743C33.8148 42.2448 33.5037 42.7447 33.2369 43.2685C32.2323 45.2204 32.66 48.2692 33.7879 50.8573Z" fill="#EEE8E8"/>
<path d="M42.2895 46.4152C42.5766 48.8968 40.5933 51.4619 38.7334 51.6836C37.6629 51.8103 36.2737 51.7671 35.4988 50.7652C35.1167 50.3271 34.8616 49.7925 34.7611 49.2193C34.7123 48.9486 34.6549 48.3844 34.5631 47.5783C34.2761 45.0966 36.5177 42.5603 38.3804 42.3329C40.2431 42.1054 41.9911 43.9307 42.2895 46.4152Z" fill="#FFC557"/>
<path d="M41.4801 46.4151C41.7326 48.4995 40.5989 50.6817 38.8969 50.889C37.8924 51.0157 36.6754 51.0588 36.0268 50.1318C35.5905 49.4898 35.3982 48.3843 35.2891 47.5408C35.0394 45.4593 36.4028 43.4297 38.1076 43.2224C39.8125 43.0151 41.2275 44.325 41.4801 46.4151Z" fill="#5B2E13"/>
<path d="M40.1827 44.9958C40.2152 45.0354 40.2565 45.0668 40.3034 45.0873C40.3503 45.1078 40.4014 45.1169 40.4524 45.1138L40.7395 45.0937L41.3451 45.0275C41.3779 45.0255 41.4106 45.0207 41.4427 45.0131L41.9047 44.9008L41.7325 44.5236C41.7268 44.506 41.7181 44.4894 41.7067 44.4747L41.4197 43.9882L40.7911 44.3826C40.7584 44.4028 40.7225 44.4174 40.6849 44.4258L40.3061 44.5179C40.2754 44.5249 40.2466 44.5383 40.2214 44.5572C40.1962 44.576 40.1752 44.5999 40.1597 44.6273L40.131 44.682C40.1047 44.7266 40.093 44.7784 40.0977 44.8301C40.1023 44.8818 40.123 44.9306 40.1568 44.9699L40.1827 44.9958Z" fill="white"/>
<path d="M61.4679 58.521L60.2567 59.3588L56.1495 60.3059L50.0188 59.0191L54.4188 51.7987L56.6833 52.2852L59.6424 50.9408L61.5224 50.4629L63.5372 51.2028L64.5447 52.8063L64.737 54.7266L63.7353 56.6353L62.6446 57.7984L61.4679 58.521Z" fill="#7564A0"/>
<path d="M11.4583 64.6905C11.3091 64.4976 11.1713 64.3047 11.0049 64.1147C10.9636 64.079 10.9305 64.0349 10.9077 63.9852C10.885 63.9355 10.8733 63.8815 10.8733 63.8268C10.8733 63.7722 10.885 63.7182 10.9077 63.6685C10.9305 63.6188 10.9636 63.5746 11.0049 63.5389C11.0433 63.5007 11.0894 63.471 11.14 63.4517C11.1907 63.4324 11.2448 63.4239 11.2989 63.4269C11.353 63.4299 11.4058 63.4442 11.4541 63.469C11.5023 63.4937 11.5448 63.5284 11.5789 63.5706C11.9405 63.9074 12.2878 64.2673 12.6695 64.5782C14.1266 65.816 15.9329 66.5659 17.8358 66.723C18.6452 66.8008 19.4609 66.671 20.2066 66.3459C21.2944 65.8565 21.9775 64.7941 21.8655 63.8124C21.7421 62.73 20.9471 61.9613 19.6785 61.6964C19.0155 61.5554 18.3295 61.6014 17.6694 61.3913C16.837 61.1264 16.1998 60.66 15.9616 59.7618C15.887 59.4739 15.9214 59.2465 16.2142 59.1515C16.5069 59.0564 16.6476 59.2436 16.7337 59.5228C17.0666 60.6197 18.0138 60.7003 18.9236 60.7838C19.4649 60.8247 19.999 60.9331 20.5137 61.1062C22.8385 61.944 23.4068 64.6387 21.6158 66.3516C21.4752 66.4898 21.3288 66.6194 21.1796 66.7518C20.2238 67.6356 19.0298 67.745 17.8387 67.6759C15.8537 67.5277 13.9565 66.7946 12.3854 65.5686C12.0477 65.3079 11.7371 65.0137 11.4583 64.6905Z" fill="#5C2F10"/>
<path d="M11.4583 64.6906C11.8658 64.8518 12.127 65.2088 12.4657 65.4621C14.0073 66.6528 15.8571 67.3752 17.7956 67.5436C18.988 67.6468 20.1827 67.3719 21.211 66.7576C20.6743 67.604 19.8334 67.961 18.9149 68.1539C16.3318 68.7009 12.9794 67.2441 11.6018 65.0101C11.5454 64.9076 11.4974 64.8008 11.4583 64.6906Z" fill="#715091"/>
<path d="M60.3944 56.0308C61.8539 55.1509 63.4409 54.504 65.0986 54.1134C65.1187 54.2401 65.1388 54.3581 65.1618 54.479C64.9982 54.5193 64.8346 54.5596 64.671 54.6057C63.2274 54.9906 61.8441 55.5748 60.5609 56.3417C60.4576 56.405 60.3083 56.5173 60.2165 56.359C60.1246 56.2006 60.2739 56.1287 60.3944 56.0308Z" fill="#715091"/>
<path d="M59.7802 54.6028C61.239 53.7161 62.8273 53.0643 64.4873 52.671L64.5476 53.0338L64.0596 53.1604C62.6129 53.5521 61.2269 54.1421 59.941 54.9137C59.8376 54.9742 59.6913 55.0864 59.5966 54.931C59.5018 54.7755 59.6511 54.6891 59.7802 54.6028Z" fill="#715091"/>
<path d="M58.9995 53.3216C60.4586 52.435 62.0467 51.7823 63.7065 51.387C63.7266 51.5136 63.7467 51.6317 63.7697 51.7526C63.6061 51.7929 63.4425 51.8332 63.2789 51.8793C61.8326 52.2681 60.4473 52.8573 59.1631 53.6296C59.0598 53.693 58.9105 53.8053 58.8158 53.6469C58.7211 53.4886 58.8703 53.3993 58.9995 53.3216Z" fill="#715091"/>
<path d="M53.9882 60.6946C53.7012 60.6227 50.5441 60.0641 50.257 59.9893C49.97 59.9144 49.815 59.7906 49.8724 59.4711C49.875 59.3338 49.929 59.2025 50.0237 59.1033C50.1183 59.0041 50.2467 58.9443 50.3833 58.9356C50.9947 58.9874 54.4963 59.6409 55.1105 59.6525C57.4856 59.7498 59.832 59.1028 61.8238 57.8013C62.6755 57.2549 63.3755 56.5012 63.8587 55.6105C64.5562 54.2977 64.4328 52.7315 63.5717 51.8506C62.6274 50.8804 61.2756 50.7364 59.8118 51.4475C59.0569 51.816 58.414 52.3889 57.6161 52.6826C56.5944 53.0626 55.607 53.0885 54.6972 52.3947C54.4102 52.173 54.2638 51.9168 54.4733 51.6059C54.6828 51.2949 54.9698 51.364 55.2655 51.5742C56.4279 52.3947 57.421 51.7469 58.3796 51.1366C58.9425 50.761 59.5499 50.4573 60.1878 50.2326C63.1096 49.2768 65.71 51.4878 65.2622 54.551C65.2278 54.7957 65.179 55.0375 65.1359 55.2823C64.869 56.8772 63.7812 57.9021 62.5528 58.737C60.4691 60.1764 58.1069 60.7954 55.5812 60.853C55.0461 60.8568 54.5122 60.8037 53.9882 60.6946Z" fill="#5C2F10"/>
<path opacity="0.5" d="M29.1383 87.9897C36.338 87.9897 42.1746 87.099 42.1746 86.0003C42.1746 84.9016 36.338 84.011 29.1383 84.011C21.9386 84.011 16.1021 84.9016 16.1021 86.0003C16.1021 87.099 21.9386 87.9897 29.1383 87.9897Z" fill="#7564A0"/>
</g>
<defs>
<clipPath id="clip0">
<rect width="201" height="88" fill="white"/>
</clipPath>
</defs>
</svg>
