<svg width="69" height="27" viewBox="0 0 69 27" fill="none" xmlns="http://www.w3.org/2000/svg">
<path d="M22.362 8.57803V20.6798H0V6.32015H24.2002L29.3738 0V14.7376L24.3044 8.57803H22.362ZM9.0964 18.7243H10.4893L10.982 17.6379L7.38135 13.1032L11.5979 8.57803H8.9827L4.4724 13.3016V8.57803H2.13197V18.7243H4.4724V16.1547L5.83686 14.7376L9.0964 18.7243ZM19.4341 18.7243H21.9072L17.359 8.57803H15.028L10.4893 18.7243H13.1708L13.8057 16.5514H18.5434L19.4341 18.7243ZM14.5637 14.7659L16.1745 10.8831L17.7948 14.7659H14.5637Z" fill="#83719F"/>
<path d="M53.7068 6.32019H65.9585V20.6704H54.1521L53.7068 6.32019ZM61.5335 8.56862V14.7282L56.4736 8.56862H54.5311V18.7149H56.8526V12.5553L61.9315 18.7149H63.8265V8.56862H61.5335Z" fill="#83719F"/>
<path d="M31.6857 18.7527V6.32019H43.0562L43.1415 17.6001L42.6393 18.781L43.0846 20.6704H29.8475L24.6833 27V12.5931L29.7622 18.7527H31.6857ZM40.9621 13.4434C41.3751 13.2264 41.7195 12.8993 41.957 12.4986C42.1983 12.1033 42.3231 11.6482 42.3171 11.1855C42.324 10.8176 42.2414 10.4536 42.0764 10.1246C41.9114 9.79551 41.6689 9.51122 41.3696 9.29605C40.517 8.77569 39.5248 8.5284 38.5269 8.58751H33.486V18.7149H38.7543C39.8145 18.7847 40.8711 18.5345 41.7865 17.9969C42.1211 17.7728 42.3921 17.4663 42.573 17.1072C42.754 16.748 42.8388 16.3483 42.8193 15.9469C42.8381 15.3777 42.6645 14.8188 42.3266 14.3597C41.9802 13.9183 41.5026 13.5975 40.9621 13.4434ZM38.1669 10.3352C38.629 10.3067 39.0896 10.4116 39.4934 10.6375C39.6448 10.7286 39.7675 10.8599 39.8479 11.0169C39.9283 11.1738 39.963 11.35 39.9483 11.5256C39.9673 11.7096 39.935 11.8952 39.8547 12.062C39.7744 12.2287 39.6494 12.3701 39.4934 12.4703C39.0925 12.7042 38.6304 12.8128 38.1669 12.7821H35.8264V10.3352H38.1669ZM38.5743 16.9483H35.8264V14.4448H38.5743C39.8251 14.4448 40.4694 14.8604 40.4694 15.7012C40.4823 15.8855 40.4462 16.0699 40.3647 16.2358C40.2831 16.4017 40.1591 16.5432 40.0051 16.6459C39.5653 16.8765 39.0701 16.9811 38.5743 16.9483Z" fill="#83719F"/>
<path d="M43.028 16.7782L42.9617 6.32019H54.4648V20.6704H41.8057L43.028 16.7782ZM51.6032 18.6676H54.0763L49.5281 8.56862H47.1972L42.6395 18.7149H45.0463L45.9938 16.542H50.7315L51.6032 18.6676ZM46.7329 14.7093L48.3248 10.8737L49.9356 14.7565L46.7329 14.7093Z" fill="#83719F"/>
<path d="M68.6684 6.40519C68.7671 6.46135 68.8489 6.54291 68.9053 6.64137C68.967 6.74411 68.9997 6.86166 68.9997 6.98146C68.9997 7.10127 68.967 7.21882 68.9053 7.32156C68.8466 7.42076 68.7655 7.50489 68.6684 7.56719C68.5635 7.62342 68.4463 7.65285 68.3273 7.65285C68.2082 7.65285 68.091 7.62342 67.9861 7.56719C67.8867 7.5077 67.805 7.42293 67.7493 7.32156C67.6894 7.21798 67.6568 7.10098 67.6545 6.98146C67.6498 6.85211 67.6827 6.72415 67.7493 6.61302C67.805 6.51166 67.8867 6.42688 67.9861 6.3674C68.091 6.31117 68.2082 6.28174 68.3273 6.28174C68.4463 6.28174 68.5635 6.31117 68.6684 6.3674V6.40519ZM68.6684 7.50106C68.7567 7.44615 68.8312 7.37183 68.8863 7.28377C68.9361 7.19073 68.9621 7.08691 68.9621 6.98146C68.9621 6.87602 68.9361 6.77219 68.8863 6.67915C68.8334 6.59187 68.7582 6.52015 68.6684 6.47132C68.578 6.41357 68.4725 6.38397 68.3652 6.38629C68.258 6.38507 68.1528 6.41459 68.0619 6.47132C67.9697 6.5211 67.8939 6.59661 67.844 6.6886C67.7946 6.77839 67.7686 6.87907 67.7682 6.98146C67.7674 7.08701 67.7935 7.19102 67.844 7.28377C67.8976 7.37447 67.9737 7.44992 68.0649 7.50286C68.1562 7.5558 68.2596 7.58445 68.3652 7.58608C68.4594 7.58052 68.5506 7.55127 68.6305 7.50106H68.6684ZM68.6684 7.00036C68.6386 7.04427 68.5954 7.07741 68.5452 7.09483L68.7157 7.3688H68.621L68.4504 7.11372H68.2135V7.3688H68.1093V6.61302H68.4125C68.4907 6.60872 68.5679 6.63215 68.6305 6.67915C68.6581 6.70211 68.6802 6.73106 68.695 6.7638C68.7098 6.79654 68.7169 6.83221 68.7157 6.8681C68.7008 6.92197 68.6673 6.96884 68.621 7.00036H68.6684ZM68.5641 7.00036C68.5954 6.96708 68.6129 6.92317 68.6129 6.87754C68.6129 6.83192 68.5954 6.78801 68.5641 6.75473C68.5124 6.73422 68.4548 6.73422 68.4031 6.75473H68.2135V7.09483H68.4031C68.4541 7.07287 68.4947 7.03232 68.5168 6.98146L68.5641 7.00036Z" fill="#83719F"/>
</svg>
