<svg width="16" height="16" viewBox="0 0 16 16" fill="none" xmlns="http://www.w3.org/2000/svg">
<path d="M12.9949 1.17895H9.76034V1.14526C9.76034 0.505263 9.27516 0 8.66059 0H6.46109C5.84652 0 5.36134 0.505263 5.36134 1.14526V1.17895H2.12677C1.78714 1.17895 1.51221 1.46526 1.51221 1.81895V2.45895C1.51221 2.81263 1.78714 3.09895 2.12677 3.09895H12.9949C13.3345 3.09895 13.6095 2.81263 13.6095 2.45895V1.81895C13.6095 1.46526 13.3345 1.17895 12.9949 1.17895Z" fill="#C5C7CD"/>
<path d="M12.1864 3.97473H2.93554C2.75764 3.97473 2.62826 4.12631 2.64443 4.31157L3.09727 14.0632C3.14579 15.141 4.00295 16 5.03801 16H10.0678C11.1028 16 11.96 15.1579 12.0085 14.0632L12.4613 4.31157C12.4937 4.14315 12.3481 3.97473 12.1864 3.97473ZM6.55825 13.3895C6.55825 13.6926 6.33183 13.9284 6.04072 13.9284C5.74961 13.9284 5.52319 13.6926 5.52319 13.3895V6.6021C5.52319 6.29894 5.74961 6.06315 6.04072 6.06315C6.33183 6.06315 6.55825 6.29894 6.55825 6.6021V13.3895ZM9.59874 13.3895C9.59874 13.6926 9.37232 13.9284 9.08121 13.9284C8.7901 13.9284 8.56368 13.6926 8.56368 13.3895V6.6021C8.56368 6.29894 8.7901 6.06315 9.08121 6.06315C9.37232 6.06315 9.59874 6.29894 9.59874 6.6021V13.3895Z" fill="#C5C7CD"/>
</svg>
