<svg width="3" height="13" viewBox="0 0 3 13" fill="none" xmlns="http://www.w3.org/2000/svg">
<path d="M1.5 7.92683C2.33333 7.92683 3 7.29268 3 6.5C3 5.70732 2.33333 5.07317 1.5 5.07317C0.666667 5.07317 0 5.70732 0 6.5C0 7.29268 0.666667 7.92683 1.5 7.92683ZM0 11.5732C0 10.7805 0.666667 10.1463 1.5 10.1463C2.33333 10.1463 3 10.7805 3 11.5732C3 12.3659 2.33333 13 1.5 13C0.666667 13 0 12.3659 0 11.5732ZM0 1.42683C0 0.634146 0.666667 0 1.5 0C2.33333 0 3 0.634146 3 1.42683C3 2.21951 2.33333 2.85366 1.5 2.85366C0.666667 2.85366 0 2.21951 0 1.42683Z" fill="#C5C7CD"/>
</svg>
