<svg width="16" height="16" viewBox="0 0 16 16" fill="none" xmlns="http://www.w3.org/2000/svg">
<path d="M3 13H10V11H3V13Z" fill="#83719F"/>
<path d="M10 9H3V8H10V9Z" fill="#83719F"/>
<path d="M3 6H6V5H3V6Z" fill="#83719F"/>
<path fill-rule="evenodd" clip-rule="evenodd" d="M2.16667 0C0.970016 0 0 1.0744 0 2.4V13.6C0 14.9256 0.970016 16 2.16667 16H10.8333C12.03 16 13 14.9256 13 13.6V5.6C13 2.5072 10.7366 0 7.94444 0H2.16667ZM2.16667 1.6H7.22222V5.6H11.5556V13.6C11.5556 14.0416 11.2322 14.4 10.8333 14.4H2.16667C1.76778 14.4 1.44444 14.0416 1.44444 13.6V2.4C1.44444 1.9584 1.76778 1.6 2.16667 1.6ZM8.66667 1.67998C9.83038 1.94158 10.7909 2.8232 11.2551 4H8.66667V1.67998Z" fill="#83719F"/>
</svg>
