<svg width="16" height="16" viewBox="0 0 16 16" fill="none" xmlns="http://www.w3.org/2000/svg">
<path fill-rule="evenodd" clip-rule="evenodd" d="M8.54545 3.55556H14V16H2V0H8.54545V3.55556ZM5.81818 1.77778H7.45455V3.55556H5.81818V1.77778ZM7.45455 14.2222V12.4444H5.81818V14.2222H7.45455ZM7.45455 10.6667V8.88889H5.81818V10.6667H7.45455ZM7.45455 7.11111V5.33333H5.81818V7.11111H7.45455ZM12.9091 14.2222V5.33333H8.54545V7.11111H12.9091V8.88889H8.54545V10.6667H12.9091V12.4444H8.54545V14.2222H12.9091ZM3.09091 14.2222V12.4444H4.72727V14.2222H3.09091ZM3.09091 10.6667H4.72727V8.88889H3.09091V10.6667ZM4.72727 7.11111V5.33333H3.09091V7.11111H4.72727ZM3.09091 3.55556H4.72727V1.77778H3.09091V3.55556Z" fill="#83719F"/>
</svg>
